<?xml version="1.0" encoding="UTF-8" standalone="no"?>
<!-- Created with Inkscape (http://www.inkscape.org/) -->

<svg
   xmlns:dc="http://purl.org/dc/elements/1.1/"
   xmlns:cc="http://creativecommons.org/ns#"
   xmlns:rdf="http://www.w3.org/1999/02/22-rdf-syntax-ns#"
   xmlns:svg="http://www.w3.org/2000/svg"
   xmlns="http://www.w3.org/2000/svg"
   xmlns:sodipodi="http://sodipodi.sourceforge.net/DTD/sodipodi-0.dtd"
   xmlns:inkscape="http://www.inkscape.org/namespaces/inkscape"
   width="32"
   height="32"
   viewBox="0 0 32 32"
   id="svg3927"
   version="1.1"
   inkscape:version="0.91 r13725"
   sodipodi:docname="terrain-types.svg">
  <defs
     id="defs3929" />
  <sodipodi:namedview
     id="base"
     pagecolor="#ffffff"
     bordercolor="#666666"
     borderopacity="1.0"
     inkscape:pageopacity="0.0"
     inkscape:pageshadow="2"
     inkscape:zoom="22.627417"
     inkscape:cx="16.209761"
     inkscape:cy="16.506702"
     inkscape:document-units="px"
     inkscape:current-layer="layer1"
     showgrid="true"
     units="px"
     inkscape:window-width="1301"
     inkscape:window-height="744"
     inkscape:window-x="65"
     inkscape:window-y="24"
     inkscape:window-maximized="1">
    <inkscape:grid
       type="xygrid"
       id="grid3935" />
  </sodipodi:namedview>
  <metadata
     id="metadata3932">
    <rdf:RDF>
      <cc:Work
         rdf:about="">
        <dc:format>image/svg+xml</dc:format>
        <dc:type
           rdf:resource="http://purl.org/dc/dcmitype/StillImage" />
        <dc:title></dc:title>
      </cc:Work>
    </rdf:RDF>
  </metadata>
  <g
     inkscape:label="Layer 1"
     inkscape:groupmode="layer"
     id="layer1"
     transform="translate(0,-1020.3621)">
    <path
       sodipodi:type="star"
       style="fill:#b3b3b3;stroke:#4d4d4d"
       id="path3359"
       sodipodi:sides="6"
       sodipodi:cx="24.667477"
       sodipodi:cy="1029.2675"
       sodipodi:r1="22.36068"
       sodipodi:r2="19.364918"
       sodipodi:arg1="0.52359878"
       sodipodi:arg2="1.0471976"
       inkscape:flatsided="true"
       inkscape:rounded="0"
       inkscape:randomized="0"
       d="m 44.032393,1040.4478 -19.364916,11.1803 -19.364917,-11.1803 1e-7,-22.3607 19.3649169,-11.1803 19.364916,11.1803 z"
       transform="matrix(0.70904455,0,0,0.69614407,-1.4903399,319.84366)" />
    <path
       style="fill:none;fill-rule:evenodd;stroke:#4d4d4d;stroke-width:0.5;stroke-linecap:butt;stroke-linejoin:miter;stroke-miterlimit:4;stroke-dasharray:none;stroke-opacity:1"
       d="m 2.5757931,1043.9443 3.0176705,-1.6654 4.5265054,1.6654 6.035341,-1.6654 4.526507,1.6654 4.526505,-1.6654 4.526505,1.6654"
       id="path4849"
       inkscape:connector-curvature="0" />
    <circle
       style="opacity:1;fill:#808080;stroke:#4d4d4d;stroke-width:0.5;stroke-linecap:square;stroke-linejoin:bevel;stroke-miterlimit:4;stroke-dasharray:none"
       id="path4857"
       cx="21.948559"
       cy="1029.6438"
       r="2.8457" />
    <path
       style="fill:none;fill-rule:evenodd;stroke:#4d4d4d;stroke-width:0.83088768;stroke-linecap:butt;stroke-linejoin:miter;stroke-miterlimit:4;stroke-dasharray:none;stroke-opacity:1"
       d="m 10.076761,1043.8371 0,-3.3036 0,0"
       id="path4933"
       inkscape:connector-curvature="0"
       sodipodi:nodetypes="ccc" />
    <path
       style="fill:#808080;fill-rule:evenodd;stroke:#4d4d4d;stroke-width:0.5;stroke-linecap:butt;stroke-linejoin:miter;stroke-miterlimit:4;stroke-dasharray:none;stroke-opacity:1"
       d="m 10.049398,1030.5527 -3.3235508,3.3236 1.6617754,1.6617 -3.3235508,1.6618 1.6617754,1.6618 -1.6617754,1.6618 9.9706522,0 -1.661775,-1.6618 1.661775,-1.6618 -3.323551,-1.6618 1.661776,-1.6617 z"
       id="path4937"
       inkscape:connector-curvature="0" />
    <path
       style="opacity:1;fill:#808080;stroke:#4d4d4d;stroke-width:0.015625;stroke-linecap:square;stroke-linejoin:bevel;stroke-miterlimit:4;stroke-dasharray:none"
       d="M 9.4577656,27.44127 C 5.861809,25.402944 2.9196628,23.725335 2.9196628,23.71325 c 0,-0.02279 2.6611438,-1.498297 2.7022435,-1.498297 0.01278,0 1.0167689,0.365625 2.2310864,0.8125 1.2143172,0.446875 2.2358503,0.812182 2.2700723,0.811793 0.03422,-3.89e-4 1.40334,-0.371138 3.042483,-0.823888 l 2.98026,-0.823182 2.23849,0.825281 c 1.231169,0.453905 2.259583,0.827086 2.285365,0.829292 0.02578,0.0022 1.046376,-0.364047 2.267989,-0.813893 1.221613,-0.449847 2.241144,-0.818297 2.265625,-0.818778 0.04472,-8.79e-4 4.002855,1.444197 3.989268,1.456443 -0.0094,0.0084 -13.049199,7.398716 -13.133217,7.443198 -0.05475,0.02899 -0.960775,-0.475035 -6.6015624,-3.672449 z"
       id="path4974"
       inkscape:connector-curvature="0"
       transform="translate(0,1020.3621)" />
  </g>
</svg>
