/* XPM */
static char * hexagon_mask_xpm[] = {
"110 128 2 1",
" 	c None",
".	c #FFFFFF",
"                                                      ..                                                      ",
"                                                    ......                                                    ",
"                                                  ..........                                                  ",
"                                                 ............                                                 ",
"                                               ................                                               ",
"                                             ....................                                             ",
"                                            ......................                                            ",
"                                          ..........................                                          ",
"                                        ..............................                                        ",
"                                       ................................                                       ",
"                                     ....................................                                     ",
"                                   ........................................                                   ",
"                                 ............................................                                 ",
"                                ..............................................                                ",
"                              ..................................................                              ",
"                            ......................................................                            ",
"                           ........................................................                           ",
"                         ............................................................                         ",
"                       ................................................................                       ",
"                      ..................................................................                      ",
"                    ......................................................................                    ",
"                  ..........................................................................                  ",
"                ..............................................................................                ",
"               ................................................................................               ",
"             ....................................................................................             ",
"           ........................................................................................           ",
"          ..........................................................................................          ",
"        ..............................................................................................        ",
"      ..................................................................................................      ",
"     ....................................................................................................     ",
"   ........................................................................................................   ",
" ............................................................................................................ ",
"..............................................................................................................",
"..............................................................................................................",
"..............................................................................................................",
"..............................................................................................................",
"..............................................................................................................",
"..............................................................................................................",
"..............................................................................................................",
"..............................................................................................................",
"..............................................................................................................",
"..............................................................................................................",
"..............................................................................................................",
"..............................................................................................................",
"..............................................................................................................",
"..............................................................................................................",
"..............................................................................................................",
"..............................................................................................................",
"..............................................................................................................",
"..............................................................................................................",
"..............................................................................................................",
"..............................................................................................................",
"..............................................................................................................",
"..............................................................................................................",
"..............................................................................................................",
"..............................................................................................................",
"..............................................................................................................",
"..............................................................................................................",
"..............................................................................................................",
"..............................................................................................................",
"..............................................................................................................",
"..............................................................................................................",
"..............................................................................................................",
"..............................................................................................................",
"..............................................................................................................",
"..............................................................................................................",
"..............................................................................................................",
"..............................................................................................................",
"..............................................................................................................",
"..............................................................................................................",
"..............................................................................................................",
"..............................................................................................................",
"..............................................................................................................",
"..............................................................................................................",
"..............................................................................................................",
"..............................................................................................................",
"..............................................................................................................",
"..............................................................................................................",
"..............................................................................................................",
"..............................................................................................................",
"..............................................................................................................",
"..............................................................................................................",
"..............................................................................................................",
"..............................................................................................................",
"..............................................................................................................",
"..............................................................................................................",
"..............................................................................................................",
"..............................................................................................................",
"..............................................................................................................",
"..............................................................................................................",
"..............................................................................................................",
"..............................................................................................................",
"..............................................................................................................",
"..............................................................................................................",
"..............................................................................................................",
"..............................................................................................................",
" ............................................................................................................ ",
"   ........................................................................................................   ",
"     ....................................................................................................     ",
"      ..................................................................................................      ",
"        ..............................................................................................        ",
"          ..........................................................................................          ",
"           ........................................................................................           ",
"             ....................................................................................             ",
"               ................................................................................               ",
"                ..............................................................................                ",
"                  ..........................................................................                  ",
"                    ......................................................................                    ",
"                      ..................................................................                      ",
"                       ................................................................                       ",
"                         ............................................................                         ",
"                           ........................................................                           ",
"                            ......................................................                            ",
"                              ..................................................                              ",
"                                ..............................................                                ",
"                                 ............................................                                 ",
"                                   ........................................                                   ",
"                                     ....................................                                     ",
"                                       ................................                                       ",
"                                        ..............................                                        ",
"                                          ..........................                                          ",
"                                            ......................                                            ",
"                                             ....................                                             ",
"                                               ................                                               ",
"                                                 ............                                                 ",
"                                                  ..........                                                  ",
"                                                    ......                                                    ",
"                                                      ..                                                      "};
