<?xml version="1.0" encoding="UTF-8" standalone="no"?>
<!-- Created with Inkscape (http://www.inkscape.org/) -->

<svg
   xmlns:dc="http://purl.org/dc/elements/1.1/"
   xmlns:cc="http://creativecommons.org/ns#"
   xmlns:rdf="http://www.w3.org/1999/02/22-rdf-syntax-ns#"
   xmlns:svg="http://www.w3.org/2000/svg"
   xmlns="http://www.w3.org/2000/svg"
   xmlns:sodipodi="http://sodipodi.sourceforge.net/DTD/sodipodi-0.dtd"
   xmlns:inkscape="http://www.inkscape.org/namespaces/inkscape"
   width="32"
   height="32"
   viewBox="0 0 32 32"
   id="svg3927"
   version="1.1"
   inkscape:version="0.91 r13725"
   sodipodi:docname="army-types.svg">
  <defs
     id="defs3929" />
  <sodipodi:namedview
     id="base"
     pagecolor="#ffffff"
     bordercolor="#666666"
     borderopacity="1.0"
     inkscape:pageopacity="0.0"
     inkscape:pageshadow="2"
     inkscape:zoom="11.313709"
     inkscape:cx="0.74959371"
     inkscape:cy="16.702413"
     inkscape:document-units="px"
     inkscape:current-layer="layer1"
     showgrid="true"
     units="px"
     inkscape:window-width="1301"
     inkscape:window-height="744"
     inkscape:window-x="65"
     inkscape:window-y="24"
     inkscape:window-maximized="1"
     showguides="false">
    <inkscape:grid
       type="xygrid"
       id="grid3935" />
  </sodipodi:namedview>
  <metadata
     id="metadata3932">
    <rdf:RDF>
      <cc:Work
         rdf:about="">
        <dc:format>image/svg+xml</dc:format>
        <dc:type
           rdf:resource="http://purl.org/dc/dcmitype/StillImage" />
        <dc:title></dc:title>
      </cc:Work>
    </rdf:RDF>
  </metadata>
  <g
     inkscape:label="Layer 1"
     inkscape:groupmode="layer"
     id="layer1"
     transform="translate(0,-1020.3621)">
    <circle
       style="opacity:0;fill:#808080;stroke:#4d4d4d;stroke-width:0.5;stroke-linecap:square;stroke-linejoin:bevel;stroke-miterlimit:4;stroke-dasharray:none"
       id="path4857"
       cx="21.948559"
       cy="1029.6438"
       r="2.8457" />
    <path
       sodipodi:type="star"
       style="fill:#b3b3b3;stroke:#4d4d4d"
       id="path3359"
       sodipodi:sides="6"
       sodipodi:cx="24.667477"
       sodipodi:cy="1029.2675"
       sodipodi:r1="22.845648"
       sodipodi:r2="19.364918"
       sodipodi:arg1="0.52709265"
       sodipodi:arg2="1.0506915"
       inkscape:flatsided="true"
       inkscape:rounded="0"
       inkscape:randomized="0"
       d="m 44.412357,1040.7593 -19.8247,11.3537 -19.7448808,-11.4919 0.07982,-22.8455 19.8247001,-11.3537 19.744881,11.4919 z"
       transform="matrix(0.70904455,0,0,0.69614407,-1.4903399,319.84366)" />
    <path
       style="opacity:0;fill:#808080;stroke:#4d4d4d;stroke-width:0.015625;stroke-linecap:square;stroke-linejoin:miter;stroke-miterlimit:4;stroke-dasharray:none"
       d="m 9.4357234,27.433966 c -3.5779853,-2.0313 -6.5132025,-3.701146 -6.5227048,-3.710769 -0.020414,-0.02067 2.6481969,-1.497978 2.7068131,-1.498453 0.022038,-1.79e-4 0.5638976,0.198908 1.204132,0.442415 l 1.1640625,0.442739 0,0.57321 0,0.57321 8.0156248,0 8.015625,0 0,-0.808288 0,-0.808289 0.595857,-0.221485 0.595856,-0.221486 1.958831,0.720179 c 1.077357,0.396098 1.969472,0.730215 1.982477,0.742482 0.02765,0.02608 -13.052904,7.447959 -13.147412,7.459814 -0.0376,0.0047 -2.731037,-1.506291 -6.5691616,-3.685279 z"
       id="path5042"
       inkscape:connector-curvature="0"
       transform="translate(0,1020.3621)" />
    <path
       style="opacity:0;fill:#808080;stroke:#4d4d4d;stroke-width:0.015625;stroke-linecap:square;stroke-linejoin:miter;stroke-miterlimit:4;stroke-dasharray:none"
       d="m 9.4357234,27.433966 c -3.5779853,-2.0313 -6.5132025,-3.701146 -6.5227048,-3.710769 -0.020414,-0.02067 2.6481969,-1.497978 2.7068131,-1.498453 0.022038,-1.79e-4 0.5638976,0.198908 1.204132,0.442415 l 1.1640625,0.442739 0,0.57321 0,0.57321 8.0156248,0 8.015625,0 0,-0.808288 0,-0.808289 0.595857,-0.221485 0.595856,-0.221486 1.958831,0.720179 c 1.077357,0.396098 1.969472,0.730215 1.982477,0.742482 0.02765,0.02608 -13.052904,7.447959 -13.147412,7.459814 -0.0376,0.0047 -2.731037,-1.506291 -6.5691616,-3.685279 z"
       id="path5044"
       inkscape:connector-curvature="0"
       transform="translate(0,1020.3621)" />
    <path
       style="opacity:0;fill:#808080;stroke:#4d4d4d;stroke-width:0.015625;stroke-linecap:square;stroke-linejoin:miter;stroke-miterlimit:4;stroke-dasharray:none"
       d="m 9.4357234,27.433966 c -3.5779853,-2.0313 -6.5132025,-3.701146 -6.5227048,-3.710769 -0.020414,-0.02067 2.6481969,-1.497978 2.7068131,-1.498453 0.022038,-1.79e-4 0.5638976,0.198908 1.204132,0.442415 l 1.1640625,0.442739 0,0.57321 0,0.57321 8.0156248,0 8.015625,0 0,-0.808288 0,-0.808289 0.595857,-0.221485 0.595856,-0.221486 1.958831,0.720179 c 1.077357,0.396098 1.969472,0.730215 1.982477,0.742482 0.02765,0.02608 -13.052904,7.447959 -13.147412,7.459814 -0.0376,0.0047 -2.731037,-1.506291 -6.5691616,-3.685279 z"
       id="path5046"
       inkscape:connector-curvature="0"
       transform="translate(0,1020.3621)" />
    <path
       style="opacity:0;fill:#808080;stroke:#4d4d4d;stroke-width:0.015625;stroke-linecap:square;stroke-linejoin:miter;stroke-miterlimit:4;stroke-dasharray:none"
       d="m 9.4357234,27.433966 c -3.5779853,-2.0313 -6.5132025,-3.701146 -6.5227048,-3.710769 -0.020414,-0.02067 2.6481969,-1.497978 2.7068131,-1.498453 0.022038,-1.79e-4 0.5638976,0.198908 1.204132,0.442415 l 1.1640625,0.442739 0,0.57321 0,0.57321 8.0156248,0 8.015625,0 0,-0.808288 0,-0.808289 0.595857,-0.221485 0.595856,-0.221486 1.958831,0.720179 c 1.077357,0.396098 1.969472,0.730215 1.982477,0.742482 0.02765,0.02608 -13.052904,7.447959 -13.147412,7.459814 -0.0376,0.0047 -2.731037,-1.506291 -6.5691616,-3.685279 z"
       id="path5048"
       inkscape:connector-curvature="0"
       transform="translate(0,1020.3621)" />
    <path
       style="opacity:0;fill:#808080;stroke:#4d4d4d;stroke-width:0.015625;stroke-linecap:square;stroke-linejoin:miter;stroke-miterlimit:4;stroke-dasharray:none"
       d="m 9.4357234,27.433966 c -3.5779853,-2.0313 -6.5132025,-3.701146 -6.5227048,-3.710769 -0.020414,-0.02067 2.6481969,-1.497978 2.7068131,-1.498453 0.022038,-1.79e-4 0.5638976,0.198908 1.204132,0.442415 l 1.1640625,0.442739 0,0.57321 0,0.57321 8.0156248,0 8.015625,0 0,-0.808288 0,-0.808289 0.595857,-0.221485 0.595856,-0.221486 1.958831,0.720179 c 1.077357,0.396098 1.969472,0.730215 1.982477,0.742482 0.02765,0.02608 -13.052904,7.447959 -13.147412,7.459814 -0.0376,0.0047 -2.731037,-1.506291 -6.5691616,-3.685279 z"
       id="path5050"
       inkscape:connector-curvature="0"
       transform="translate(0,1020.3621)" />
    <path
       style="opacity:0;fill:#808080;stroke:#4d4d4d;stroke-width:0.015625;stroke-linecap:square;stroke-linejoin:miter;stroke-miterlimit:4;stroke-dasharray:none"
       d="m 9.4357234,27.433966 c -3.5779853,-2.0313 -6.5132025,-3.701146 -6.5227048,-3.710769 -0.020414,-0.02067 2.6481969,-1.497978 2.7068131,-1.498453 0.022038,-1.79e-4 0.5638976,0.198908 1.204132,0.442415 l 1.1640625,0.442739 0,0.57321 0,0.57321 8.0156248,0 8.015625,0 0,-0.808288 0,-0.808289 0.595857,-0.221485 0.595856,-0.221486 1.958831,0.720179 c 1.077357,0.396098 1.969472,0.730215 1.982477,0.742482 0.02765,0.02608 -13.052904,7.447959 -13.147412,7.459814 -0.0376,0.0047 -2.731037,-1.506291 -6.5691616,-3.685279 z"
       id="path5052"
       inkscape:connector-curvature="0"
       transform="translate(0,1020.3621)" />
    <path
       style="opacity:0;fill:#808080;stroke:#4d4d4d;stroke-width:0.015625;stroke-linecap:square;stroke-linejoin:miter;stroke-miterlimit:4;stroke-dasharray:none"
       d="m 9.4357234,27.433966 c -3.5779853,-2.0313 -6.5132025,-3.701146 -6.5227048,-3.710769 -0.020414,-0.02067 2.6481969,-1.497978 2.7068131,-1.498453 0.022038,-1.79e-4 0.5638976,0.198908 1.204132,0.442415 l 1.1640625,0.442739 0,0.57321 0,0.57321 8.0156248,0 8.015625,0 0,-0.808288 0,-0.808289 0.595857,-0.221485 0.595856,-0.221486 1.958831,0.720179 c 1.077357,0.396098 1.969472,0.730215 1.982477,0.742482 0.02765,0.02608 -13.052904,7.447959 -13.147412,7.459814 -0.0376,0.0047 -2.731037,-1.506291 -6.5691616,-3.685279 z"
       id="path5054"
       inkscape:connector-curvature="0"
       transform="translate(0,1020.3621)" />
    <path
       style="opacity:0;fill:#333333;stroke:#4d4d4d;stroke-width:0.015625;stroke-linecap:square;stroke-linejoin:miter;stroke-miterlimit:4;stroke-dasharray:none"
       d="m 8.9567762,27.960766 -7.015625,-3.979366 -0.00788,-7.237541 -0.00788,-7.2375406 0.3437468,0 0.3437467,0 0.00788,6.8885136 0.00788,6.888514 0.875,-0.484297 c 0.48125,-0.266364 1.1450207,-0.632334 1.475046,-0.813267 l 0.6000459,-0.32897 1.149954,0.438194 c 0.6324747,0.241006 1.1745635,0.447712 1.2046416,0.459346 0.045678,0.01767 0.054687,0.06179 0.054687,0.26781 0,0.135661 -0.00907,0.246656 -0.020158,0.246656 -0.011087,0 -0.536391,-0.196875 -1.1673419,-0.4375 -0.630951,-0.240625 -1.1629806,-0.4375 -1.1822878,-0.4375 -0.025537,0 -2.7264064,1.472046 -2.7785675,1.514393 -0.00976,0.0079 13.051,7.411756 13.124284,7.439842 0.0376,0.01441 2.065843,-1.119273 6.663531,-3.724572 3.635214,-2.059908 6.609366,-3.752319 6.609229,-3.760913 -1.25e-4,-0.0086 -0.906936,-0.348092 -2.015107,-0.75444 l -2.014856,-0.738815 -0.570301,0.21518 c -0.313665,0.118349 -0.580847,0.215269 -0.593737,0.215378 -0.01289,9.4e-5 -0.02344,-0.110585 -0.02344,-0.245985 l 0,-0.246183 0.593857,-0.222372 0.593856,-0.222373 2.080029,0.76543 c 1.144016,0.420987 2.086155,0.76543 2.093643,0.76543 0.0075,0 0.01362,-3.079687 0.01362,-6.84375 l 0,-6.8437496 0.343816,0 0.343817,0 -0.0079,7.2361856 -0.0079,7.236186 -7.025929,3.982564 c -3.86426,2.190411 -7.035354,3.981735 -7.046875,3.980722 -0.01152,-0.001 -3.177977,-1.792559 -7.0365707,-3.98121 z"
       id="path5058"
       inkscape:connector-curvature="0"
       transform="translate(0,1020.3621)" />
    <path
       style="opacity:0;fill:#333333;stroke:#4d4d4d;stroke-width:0.015625;stroke-linecap:square;stroke-linejoin:miter;stroke-miterlimit:4;stroke-dasharray:none"
       d="m 9.4357234,27.433966 c -3.5779853,-2.0313 -6.5132025,-3.701146 -6.5227048,-3.710769 -0.020414,-0.02067 2.6481969,-1.497978 2.7068131,-1.498453 0.022038,-1.79e-4 0.5638976,0.198908 1.204132,0.442415 l 1.1640625,0.442739 0,0.57321 0,0.57321 8.0156248,0 8.015625,0 0,-0.808288 0,-0.808289 0.595857,-0.221485 0.595856,-0.221486 1.958831,0.720179 c 1.077357,0.396098 1.969472,0.730215 1.982477,0.742482 0.02765,0.02608 -13.052904,7.447959 -13.147412,7.459814 -0.0376,0.0047 -2.731037,-1.506291 -6.5691616,-3.685279 z"
       id="path5062"
       inkscape:connector-curvature="0"
       transform="translate(0,1020.3621)" />
    <path
       style="opacity:0;fill:#333333;stroke:#4d4d4d;stroke-width:0.015625;stroke-linecap:square;stroke-linejoin:miter;stroke-miterlimit:4;stroke-dasharray:none"
       d="m 9.4357234,27.433966 c -3.5779853,-2.0313 -6.5132025,-3.701146 -6.5227048,-3.710769 -0.020414,-0.02067 2.6481969,-1.497978 2.7068131,-1.498453 0.022038,-1.79e-4 0.5638976,0.198908 1.204132,0.442415 l 1.1640625,0.442739 0,0.57321 0,0.57321 8.0156248,0 8.015625,0 0,-0.808288 0,-0.808289 0.595857,-0.221485 0.595856,-0.221486 1.958831,0.720179 c 1.077357,0.396098 1.969472,0.730215 1.982477,0.742482 0.02765,0.02608 -13.052904,7.447959 -13.147412,7.459814 -0.0376,0.0047 -2.731037,-1.506291 -6.5691616,-3.685279 z"
       id="path5064"
       inkscape:connector-curvature="0"
       transform="translate(0,1020.3621)" />
    <path
       style="opacity:0;fill:#333333;stroke:#4d4d4d;stroke-width:0.015625;stroke-linecap:square;stroke-linejoin:miter;stroke-miterlimit:4;stroke-dasharray:none"
       d="m 9.4357234,27.433966 c -3.5779853,-2.0313 -6.5132025,-3.701146 -6.5227048,-3.710769 -0.020414,-0.02067 2.6481969,-1.497978 2.7068131,-1.498453 0.022038,-1.79e-4 0.5638976,0.198908 1.204132,0.442415 l 1.1640625,0.442739 0,0.57321 0,0.57321 8.0156248,0 8.015625,0 0,-0.808288 0,-0.808289 0.595857,-0.221485 0.595856,-0.221486 1.958831,0.720179 c 1.077357,0.396098 1.969472,0.730215 1.982477,0.742482 0.02765,0.02608 -13.052904,7.447959 -13.147412,7.459814 -0.0376,0.0047 -2.731037,-1.506291 -6.5691616,-3.685279 z"
       id="path5066"
       inkscape:connector-curvature="0"
       transform="translate(0,1020.3621)" />
    <path
       style="opacity:0;fill:#333333;stroke:#4d4d4d;stroke-width:0.015625;stroke-linecap:square;stroke-linejoin:miter;stroke-miterlimit:4;stroke-dasharray:none"
       d="m 9.4357234,27.433966 c -3.5779853,-2.0313 -6.5132025,-3.701146 -6.5227048,-3.710769 -0.020414,-0.02067 2.6481969,-1.497978 2.7068131,-1.498453 0.022038,-1.79e-4 0.5638976,0.198908 1.204132,0.442415 l 1.1640625,0.442739 0,0.57321 0,0.57321 8.0156248,0 8.015625,0 0,-0.808288 0,-0.808289 0.595857,-0.221485 0.595856,-0.221486 1.958831,0.720179 c 1.077357,0.396098 1.969472,0.730215 1.982477,0.742482 0.02765,0.02608 -13.052904,7.447959 -13.147412,7.459814 -0.0376,0.0047 -2.731037,-1.506291 -6.5691616,-3.685279 z"
       id="path5068"
       inkscape:connector-curvature="0"
       transform="translate(0,1020.3621)" />
    <path
       style="opacity:0;fill:#333333;stroke:#4d4d4d;stroke-width:0.015625;stroke-linecap:square;stroke-linejoin:miter;stroke-miterlimit:4;stroke-dasharray:none"
       d="m 9.4357234,27.433966 c -3.5779853,-2.0313 -6.5132025,-3.701146 -6.5227048,-3.710769 -0.020414,-0.02067 2.6481969,-1.497978 2.7068131,-1.498453 0.022038,-1.79e-4 0.5638976,0.198908 1.204132,0.442415 l 1.1640625,0.442739 0,0.57321 0,0.57321 8.0156248,0 8.015625,0 0,-0.808288 0,-0.808289 0.595857,-0.221485 0.595856,-0.221486 1.958831,0.720179 c 1.077357,0.396098 1.969472,0.730215 1.982477,0.742482 0.02765,0.02608 -13.052904,7.447959 -13.147412,7.459814 -0.0376,0.0047 -2.731037,-1.506291 -6.5691616,-3.685279 z"
       id="path5070"
       inkscape:connector-curvature="0"
       transform="translate(0,1020.3621)" />
    <path
       style="opacity:0;fill:#333333;stroke:#4d4d4d;stroke-width:0.015625;stroke-linecap:square;stroke-linejoin:miter;stroke-miterlimit:4;stroke-dasharray:none"
       d="m 9.4357234,27.433966 c -3.5779853,-2.0313 -6.5132025,-3.701146 -6.5227048,-3.710769 -0.020414,-0.02067 2.6481969,-1.497978 2.7068131,-1.498453 0.022038,-1.79e-4 0.5638976,0.198908 1.204132,0.442415 l 1.1640625,0.442739 0,0.57321 0,0.57321 8.0156248,0 8.015625,0 0,-0.808288 0,-0.808289 0.595857,-0.221485 0.595856,-0.221486 1.958831,0.720179 c 1.077357,0.396098 1.969472,0.730215 1.982477,0.742482 0.02765,0.02608 -13.052904,7.447959 -13.147412,7.459814 -0.0376,0.0047 -2.731037,-1.506291 -6.5691616,-3.685279 z"
       id="path5072"
       inkscape:connector-curvature="0"
       transform="translate(0,1020.3621)" />
    <path
       style="opacity:0;fill:#808080;stroke:#4d4d4d;stroke-width:0.03535534;stroke-linecap:square;stroke-linejoin:miter;stroke-miterlimit:4;stroke-dasharray:none"
       d="M 9.4877575,27.43859 C 5.904953,25.412499 2.9723016,23.731095 2.9707545,23.702136 c -0.00155,-0.02896 0.4636795,-0.36334 1.0338371,-0.74307 l 1.03665,-0.690418 1.504515,0.778224 c 0.8274832,0.428024 1.5673089,0.832011 1.6440572,0.89775 0.1149348,0.09845 1.4897739,0.119526 7.7963462,0.119526 l 7.656804,0 0.299656,-0.198874 c 0.164811,-0.109381 0.912354,-0.514101 1.661207,-0.899379 l 1.361551,-0.700504 1.038563,0.692046 c 0.57121,0.380626 1.036758,0.71574 1.034551,0.744699 -0.0033,0.04281 -3.333644,1.938989 -12.539384,7.139406 l -0.49716,0.280851 -6.5141905,-3.683803 z"
       id="path5127"
       inkscape:connector-curvature="0"
       transform="translate(0,1020.3621)" />
    <path
       style="opacity:0;fill:#808080;stroke:#4d4d4d;stroke-width:0.03535534;stroke-linecap:square;stroke-linejoin:miter;stroke-miterlimit:4;stroke-dasharray:none"
       d="M 9.4877575,27.43859 C 5.904953,25.412499 2.9723016,23.731095 2.9707545,23.702136 c -0.00155,-0.02896 0.4636795,-0.36334 1.0338371,-0.74307 l 1.03665,-0.690418 1.504515,0.778224 c 0.8274832,0.428024 1.5673089,0.832011 1.6440572,0.89775 0.1149348,0.09845 1.4897739,0.119526 7.7963462,0.119526 l 7.656804,0 0.299656,-0.198874 c 0.164811,-0.109381 0.912354,-0.514101 1.661207,-0.899379 l 1.361551,-0.700504 1.038563,0.692046 c 0.57121,0.380626 1.036758,0.71574 1.034551,0.744699 -0.0033,0.04281 -3.333644,1.938989 -12.539384,7.139406 l -0.49716,0.280851 -6.5141905,-3.683803 z"
       id="path5129"
       inkscape:connector-curvature="0"
       transform="translate(0,1020.3621)" />
    <path
       style="opacity:0;fill:#808080;stroke:#4d4d4d;stroke-width:0.03535534;stroke-linecap:square;stroke-linejoin:miter;stroke-miterlimit:4;stroke-dasharray:none"
       d="M 9.4877575,27.43859 C 5.904953,25.412499 2.9723016,23.731095 2.9707545,23.702136 c -0.00155,-0.02896 0.4636795,-0.36334 1.0338371,-0.74307 l 1.03665,-0.690418 1.504515,0.778224 c 0.8274832,0.428024 1.5673089,0.832011 1.6440572,0.89775 0.1149348,0.09845 1.4897739,0.119526 7.7963462,0.119526 l 7.656804,0 0.299656,-0.198874 c 0.164811,-0.109381 0.912354,-0.514101 1.661207,-0.899379 l 1.361551,-0.700504 1.038563,0.692046 c 0.57121,0.380626 1.036758,0.71574 1.034551,0.744699 -0.0033,0.04281 -3.333644,1.938989 -12.539384,7.139406 l -0.49716,0.280851 -6.5141905,-3.683803 z"
       id="path5131"
       inkscape:connector-curvature="0"
       transform="translate(0,1020.3621)" />
    <path
       style="opacity:0;fill:#808080;stroke:#4d4d4d;stroke-width:0.03535534;stroke-linecap:square;stroke-linejoin:miter;stroke-miterlimit:4;stroke-dasharray:none"
       d="M 9.4877575,27.43859 C 5.904953,25.412499 2.9723016,23.731095 2.9707545,23.702136 c -0.00155,-0.02896 0.4636795,-0.36334 1.0338371,-0.74307 l 1.03665,-0.690418 1.504515,0.778224 c 0.8274832,0.428024 1.5673089,0.832011 1.6440572,0.89775 0.1149348,0.09845 1.4897739,0.119526 7.7963462,0.119526 l 7.656804,0 0.299656,-0.198874 c 0.164811,-0.109381 0.912354,-0.514101 1.661207,-0.899379 l 1.361551,-0.700504 1.038563,0.692046 c 0.57121,0.380626 1.036758,0.71574 1.034551,0.744699 -0.0033,0.04281 -3.333644,1.938989 -12.539384,7.139406 l -0.49716,0.280851 -6.5141905,-3.683803 z"
       id="path5133"
       inkscape:connector-curvature="0"
       transform="translate(0,1020.3621)" />
    <path
       style="opacity:0;fill:#808080;stroke:#4d4d4d;stroke-width:0.03535534;stroke-linecap:square;stroke-linejoin:miter;stroke-miterlimit:4;stroke-dasharray:none"
       d="m 8.8015724,16.241779 0,-7.2036505 2.2083326,0 2.208332,0 0.02347,2.4969705 0.02347,2.496971 2.740039,0 2.740039,0 0.02347,-2.496971 0.02347,-2.4969705 2.208332,0 2.208332,0 0,7.2036505 0,7.20365 -2.48481,0 -2.484811,0 0.06179,-2.143417 0.06179,-2.143418 -0.429139,-0.527559 c -0.569935,-0.700645 -1.129283,-1.042293 -1.783983,-1.08965 -0.68674,-0.04967 -1.222455,0.208465 -1.942168,0.935854 l -0.56024,0.566214 0.02991,2.201039 0.02991,2.201039 -2.452777,-5.2e-5 -2.4527766,-5e-5 0,-7.20365 z m 3.5355336,-4.415171 0,-1.188997 -0.419844,-0.291508 c -0.362558,-0.251733 -0.493153,-0.291509 -0.957106,-0.291509 -0.444282,0 -0.612546,0.04652 -0.9722723,0.268796 l -0.4350103,0.268796 -0.024591,1.211709 -0.024591,1.211709 1.4167076,0 1.416708,0 0,-1.188996 z m 10.233517,0.02787 0.02466,-1.116935 -0.289828,-0.244382 c -0.76014,-0.6409463 -1.586388,-0.641707 -2.344857,-0.0022 l -0.287262,0.242222 0,1.082266 c 0,0.595246 0.02749,1.109754 0.06108,1.14335 0.0336,0.0336 0.679937,0.05017 1.436311,0.03683 l 1.375226,-0.02426 0.02466,-1.116935 z"
       id="path5135"
       inkscape:connector-curvature="0"
       transform="translate(0,1020.3621)" />
    <path
       style="opacity:0;fill:#808080;stroke:#4d4d4d;stroke-width:0.03535534;stroke-linecap:square;stroke-linejoin:miter;stroke-miterlimit:4;stroke-dasharray:none"
       d="m 14.28165,21.324363 0,-2.121065 0.315075,-0.34875 c 0.346521,-0.383558 1.097929,-0.800808 1.44214,-0.800808 0.369795,0 0.963767,0.347411 1.335572,0.781169 l 0.353217,0.412074 5.71e-4,2.099223 5.71e-4,2.099223 -1.723573,0 -1.723573,0 0,-2.121066 z"
       id="path5137"
       inkscape:connector-curvature="0"
       transform="translate(0,1020.3621)" />
    <path
       style="opacity:0;fill:#808080;stroke:#4d4d4d;stroke-width:0.03535534;stroke-linecap:square;stroke-linejoin:miter;stroke-miterlimit:4;stroke-dasharray:none"
       d="M 6.6037335,22.557562 C 5.759524,22.122231 5.0324625,21.76605 4.9880412,21.76605 c -0.044421,0 -0.5557186,0.318199 -1.1362162,0.707107 -0.5804976,0.388909 -1.076737,0.707107 -1.1027542,0.707107 -0.026017,0 -0.037133,-3.327752 -0.024702,-7.395006 L 2.7469706,8.3902525 9.3319025,4.6520545 C 12.953615,2.5960456 15.956609,0.91419185 16.005223,0.91460177 c 0.04861,4.1012e-4 3.051607,1.68341853 6.67332,3.74001903 l 6.584932,3.7392737 0.0226,7.3931845 c 0.01243,4.066252 0.0011,7.393185 -0.02519,7.393185 -0.02629,0 -0.549911,-0.326339 -1.163612,-0.725198 l -1.11582,-0.725198 -1.576931,0.819446 -1.576933,0.819446 0,-7.118012 c 0,-7.02755 0.0022,-7.1192139 0.176777,-7.2126195 0.09723,-0.052034 0.176777,-0.133388 0.176777,-0.1807858 0,-0.1142141 -3.096239,-4.2386316 -3.181981,-4.2386316 -0.08574,0 -3.18198,4.1244175 -3.18198,4.2386316 0,0.047398 0.07955,0.1287514 0.176777,0.1807858 0.169381,0.09065 0.176776,0.1850695 0.176776,2.2570125 l 0,2.162405 -2.209708,0 -2.209709,0 0,-2.151327 0,-2.1513269 0.220971,-0.100681 c 0.121534,-0.055375 0.220971,-0.1421493 0.220971,-0.1928325 0,-0.050683 -0.718663,-1.0486812 -1.597029,-2.217773 L 10.999204,4.5179842 9.3779583,6.6675708 7.756713,8.8171576 7.9703135,8.9976772 8.183914,9.1781968 8.1612869,16.263635 8.1386598,23.349073 6.6037335,22.557562 Z"
       id="path5139"
       inkscape:connector-curvature="0"
       transform="translate(0,1020.3621)" />
    <path
       style="opacity:0;fill:#808080;stroke:#4d4d4d;stroke-width:0.03535534;stroke-linecap:square;stroke-linejoin:miter;stroke-miterlimit:4;stroke-dasharray:none"
       d="M 6.6037335,22.557562 C 5.759524,22.122231 5.0324625,21.76605 4.9880412,21.76605 c -0.044421,0 -0.5557186,0.318199 -1.1362162,0.707107 -0.5804976,0.388909 -1.076737,0.707107 -1.1027542,0.707107 -0.026017,0 -0.037133,-3.327752 -0.024702,-7.395006 L 2.7469706,8.3902525 9.3319025,4.6520545 C 12.953615,2.5960456 15.956609,0.91419185 16.005223,0.91460177 c 0.04861,4.1012e-4 3.051607,1.68341853 6.67332,3.74001903 l 6.584932,3.7392737 0.0226,7.3931845 c 0.01243,4.066252 0.0011,7.393185 -0.02519,7.393185 -0.02629,0 -0.549911,-0.326339 -1.163612,-0.725198 l -1.11582,-0.725198 -1.576931,0.819446 -1.576933,0.819446 0,-7.118012 c 0,-7.02755 0.0022,-7.1192139 0.176777,-7.2126195 0.09723,-0.052034 0.176777,-0.133388 0.176777,-0.1807858 0,-0.1142141 -3.096239,-4.2386316 -3.181981,-4.2386316 -0.08574,0 -3.18198,4.1244175 -3.18198,4.2386316 0,0.047398 0.07955,0.1287514 0.176777,0.1807858 0.169381,0.09065 0.176776,0.1850695 0.176776,2.2570125 l 0,2.162405 -2.209708,0 -2.209709,0 0,-2.151327 0,-2.1513269 0.220971,-0.100681 c 0.121534,-0.055375 0.220971,-0.1421493 0.220971,-0.1928325 0,-0.050683 -0.718663,-1.0486812 -1.597029,-2.217773 L 10.999204,4.5179842 9.3779583,6.6675708 7.756713,8.8171576 7.9703135,8.9976772 8.183914,9.1781968 8.1612869,16.263635 8.1386598,23.349073 6.6037335,22.557562 Z"
       id="path5141"
       inkscape:connector-curvature="0"
       transform="translate(0,1020.3621)" />
    <path
       style="opacity:0;fill:#808080;stroke:#4d4d4d;stroke-width:0.03535534;stroke-linecap:square;stroke-linejoin:miter;stroke-miterlimit:4;stroke-dasharray:none"
       d="M 6.6037335,22.557562 C 5.759524,22.122231 5.0324625,21.76605 4.9880412,21.76605 c -0.044421,0 -0.5557186,0.318199 -1.1362162,0.707107 -0.5804976,0.388909 -1.076737,0.707107 -1.1027542,0.707107 -0.026017,0 -0.037133,-3.327752 -0.024702,-7.395006 L 2.7469706,8.3902525 9.3319025,4.6520545 C 12.953615,2.5960456 15.956609,0.91419185 16.005223,0.91460177 c 0.04861,4.1012e-4 3.051607,1.68341853 6.67332,3.74001903 l 6.584932,3.7392737 0.0226,7.3931845 c 0.01243,4.066252 0.0011,7.393185 -0.02519,7.393185 -0.02629,0 -0.549911,-0.326339 -1.163612,-0.725198 l -1.11582,-0.725198 -1.576931,0.819446 -1.576933,0.819446 0,-7.118012 c 0,-7.02755 0.0022,-7.1192139 0.176777,-7.2126195 0.09723,-0.052034 0.176777,-0.133388 0.176777,-0.1807858 0,-0.1142141 -3.096239,-4.2386316 -3.181981,-4.2386316 -0.08574,0 -3.18198,4.1244175 -3.18198,4.2386316 0,0.047398 0.07955,0.1287514 0.176777,0.1807858 0.169381,0.09065 0.176776,0.1850695 0.176776,2.2570125 l 0,2.162405 -2.209708,0 -2.209709,0 0,-2.151327 0,-2.1513269 0.220971,-0.100681 c 0.121534,-0.055375 0.220971,-0.1421493 0.220971,-0.1928325 0,-0.050683 -0.718663,-1.0486812 -1.597029,-2.217773 L 10.999204,4.5179842 9.3779583,6.6675708 7.756713,8.8171576 7.9703135,8.9976772 8.183914,9.1781968 8.1612869,16.263635 8.1386598,23.349073 6.6037335,22.557562 Z"
       id="path5143"
       inkscape:connector-curvature="0"
       transform="translate(0,1020.3621)" />
    <path
       style="opacity:0;fill:#808080;stroke:#4d4d4d;stroke-width:0.03535534;stroke-linecap:square;stroke-linejoin:miter;stroke-miterlimit:4;stroke-dasharray:none"
       d="M 6.6037335,22.557562 C 5.759524,22.122231 5.0324625,21.76605 4.9880412,21.76605 c -0.044421,0 -0.5557186,0.318199 -1.1362162,0.707107 -0.5804976,0.388909 -1.076737,0.707107 -1.1027542,0.707107 -0.026017,0 -0.037133,-3.327752 -0.024702,-7.395006 L 2.7469706,8.3902525 9.3319025,4.6520545 C 12.953615,2.5960456 15.956609,0.91419185 16.005223,0.91460177 c 0.04861,4.1012e-4 3.051607,1.68341853 6.67332,3.74001903 l 6.584932,3.7392737 0.0226,7.3931845 c 0.01243,4.066252 0.0011,7.393185 -0.02519,7.393185 -0.02629,0 -0.549911,-0.326339 -1.163612,-0.725198 l -1.11582,-0.725198 -1.576931,0.819446 -1.576933,0.819446 0,-7.118012 c 0,-7.02755 0.0022,-7.1192139 0.176777,-7.2126195 0.09723,-0.052034 0.176777,-0.133388 0.176777,-0.1807858 0,-0.1142141 -3.096239,-4.2386316 -3.181981,-4.2386316 -0.08574,0 -3.18198,4.1244175 -3.18198,4.2386316 0,0.047398 0.07955,0.1287514 0.176777,0.1807858 0.169381,0.09065 0.176776,0.1850695 0.176776,2.2570125 l 0,2.162405 -2.209708,0 -2.209709,0 0,-2.151327 0,-2.1513269 0.220971,-0.100681 c 0.121534,-0.055375 0.220971,-0.1421493 0.220971,-0.1928325 0,-0.050683 -0.718663,-1.0486812 -1.597029,-2.217773 L 10.999204,4.5179842 9.3779583,6.6675708 7.756713,8.8171576 7.9703135,8.9976772 8.183914,9.1781968 8.1612869,16.263635 8.1386598,23.349073 6.6037335,22.557562 Z"
       id="path5145"
       inkscape:connector-curvature="0"
       transform="translate(0,1020.3621)" />
    <path
       style="opacity:0;fill:#808080;stroke:#4d4d4d;stroke-width:0.03535534;stroke-linecap:square;stroke-linejoin:miter;stroke-miterlimit:4;stroke-dasharray:none"
       d="M 6.6037335,22.557562 C 5.759524,22.122231 5.0324625,21.76605 4.9880412,21.76605 c -0.044421,0 -0.5557186,0.318199 -1.1362162,0.707107 -0.5804976,0.388909 -1.076737,0.707107 -1.1027542,0.707107 -0.026017,0 -0.037133,-3.327752 -0.024702,-7.395006 L 2.7469706,8.3902525 9.3319025,4.6520545 C 12.953615,2.5960456 15.956609,0.91419185 16.005223,0.91460177 c 0.04861,4.1012e-4 3.051607,1.68341853 6.67332,3.74001903 l 6.584932,3.7392737 0.0226,7.3931845 c 0.01243,4.066252 0.0011,7.393185 -0.02519,7.393185 -0.02629,0 -0.549911,-0.326339 -1.163612,-0.725198 l -1.11582,-0.725198 -1.576931,0.819446 -1.576933,0.819446 0,-7.118012 c 0,-7.02755 0.0022,-7.1192139 0.176777,-7.2126195 0.09723,-0.052034 0.176777,-0.133388 0.176777,-0.1807858 0,-0.1142141 -3.096239,-4.2386316 -3.181981,-4.2386316 -0.08574,0 -3.18198,4.1244175 -3.18198,4.2386316 0,0.047398 0.07955,0.1287514 0.176777,0.1807858 0.169381,0.09065 0.176776,0.1850695 0.176776,2.2570125 l 0,2.162405 -2.209708,0 -2.209709,0 0,-2.151327 0,-2.1513269 0.220971,-0.100681 c 0.121534,-0.055375 0.220971,-0.1421493 0.220971,-0.1928325 0,-0.050683 -0.718663,-1.0486812 -1.597029,-2.217773 L 10.999204,4.5179842 9.3779583,6.6675708 7.756713,8.8171576 7.9703135,8.9976772 8.183914,9.1781968 8.1612869,16.263635 8.1386598,23.349073 6.6037335,22.557562 Z"
       id="path5147"
       inkscape:connector-curvature="0"
       transform="translate(0,1020.3621)" />
    <path
       style="opacity:0;fill:#808080;stroke:#4d4d4d;stroke-width:0.03535534;stroke-linecap:square;stroke-linejoin:miter;stroke-miterlimit:4;stroke-dasharray:none"
       d="M 6.6037335,22.557562 C 5.759524,22.122231 5.0324625,21.76605 4.9880412,21.76605 c -0.044421,0 -0.5557186,0.318199 -1.1362162,0.707107 -0.5804976,0.388909 -1.076737,0.707107 -1.1027542,0.707107 -0.026017,0 -0.037133,-3.327752 -0.024702,-7.395006 L 2.7469706,8.3902525 9.3319025,4.6520545 C 12.953615,2.5960456 15.956609,0.91419185 16.005223,0.91460177 c 0.04861,4.1012e-4 3.051607,1.68341853 6.67332,3.74001903 l 6.584932,3.7392737 0.0226,7.3931845 c 0.01243,4.066252 0.0011,7.393185 -0.02519,7.393185 -0.02629,0 -0.549911,-0.326339 -1.163612,-0.725198 l -1.11582,-0.725198 -1.576931,0.819446 -1.576933,0.819446 0,-7.118012 c 0,-7.02755 0.0022,-7.1192139 0.176777,-7.2126195 0.09723,-0.052034 0.176777,-0.133388 0.176777,-0.1807858 0,-0.1142141 -3.096239,-4.2386316 -3.181981,-4.2386316 -0.08574,0 -3.18198,4.1244175 -3.18198,4.2386316 0,0.047398 0.07955,0.1287514 0.176777,0.1807858 0.169381,0.09065 0.176776,0.1850695 0.176776,2.2570125 l 0,2.162405 -2.209708,0 -2.209709,0 0,-2.151327 0,-2.1513269 0.220971,-0.100681 c 0.121534,-0.055375 0.220971,-0.1421493 0.220971,-0.1928325 0,-0.050683 -0.718663,-1.0486812 -1.597029,-2.217773 L 10.999204,4.5179842 9.3779583,6.6675708 7.756713,8.8171576 7.9703135,8.9976772 8.183914,9.1781968 8.1612869,16.263635 8.1386598,23.349073 6.6037335,22.557562 Z"
       id="path5149"
       inkscape:connector-curvature="0"
       transform="translate(0,1020.3621)" />
    <path
       style="opacity:0;fill:#808080;stroke:#4d4d4d;stroke-width:0.03535534;stroke-linecap:square;stroke-linejoin:miter;stroke-miterlimit:4;stroke-dasharray:none"
       d="M 6.6037335,22.557562 C 5.759524,22.122231 5.0324625,21.76605 4.9880412,21.76605 c -0.044421,0 -0.5557186,0.318199 -1.1362162,0.707107 -0.5804976,0.388909 -1.076737,0.707107 -1.1027542,0.707107 -0.026017,0 -0.037133,-3.327752 -0.024702,-7.395006 L 2.7469706,8.3902525 9.3319025,4.6520545 C 12.953615,2.5960456 15.956609,0.91419185 16.005223,0.91460177 c 0.04861,4.1012e-4 3.051607,1.68341853 6.67332,3.74001903 l 6.584932,3.7392737 0.0226,7.3931845 c 0.01243,4.066252 0.0011,7.393185 -0.02519,7.393185 -0.02629,0 -0.549911,-0.326339 -1.163612,-0.725198 l -1.11582,-0.725198 -1.576931,0.819446 -1.576933,0.819446 0,-7.118012 c 0,-7.02755 0.0022,-7.1192139 0.176777,-7.2126195 0.09723,-0.052034 0.176777,-0.133388 0.176777,-0.1807858 0,-0.1142141 -3.096239,-4.2386316 -3.181981,-4.2386316 -0.08574,0 -3.18198,4.1244175 -3.18198,4.2386316 0,0.047398 0.07955,0.1287514 0.176777,0.1807858 0.169381,0.09065 0.176776,0.1850695 0.176776,2.2570125 l 0,2.162405 -2.209708,0 -2.209709,0 0,-2.151327 0,-2.1513269 0.220971,-0.100681 c 0.121534,-0.055375 0.220971,-0.1421493 0.220971,-0.1928325 0,-0.050683 -0.718663,-1.0486812 -1.597029,-2.217773 L 10.999204,4.5179842 9.3779583,6.6675708 7.756713,8.8171576 7.9703135,8.9976772 8.183914,9.1781968 8.1612869,16.263635 8.1386598,23.349073 6.6037335,22.557562 Z"
       id="path5151"
       inkscape:connector-curvature="0"
       transform="translate(0,1020.3621)" />
    <path
       style="opacity:0;fill:#808080;stroke:#4d4d4d;stroke-width:0.01767767;stroke-linecap:square;stroke-linejoin:miter;stroke-miterlimit:4;stroke-dasharray:none"
       d="M 9.514216,27.467038 C 5.9439582,25.443367 2.9847934,23.766361 2.9382941,23.740356 c -0.07351,-0.04111 0.056265,-0.141332 0.9943689,-0.767912 l 1.0789131,-0.720629 1.5992985,0.81299 c 1.0539995,0.535791 1.6063564,0.839979 1.6199987,0.892146 0.019796,0.0757 0.3595492,0.07916 7.7809147,0.07916 7.360925,0 7.760254,-0.004 7.760983,-0.07734 5.66e-4,-0.05701 0.423118,-0.292108 1.607464,-0.894357 l 1.606696,-0.817017 1.06521,0.706531 c 0.585865,0.388593 1.065693,0.717292 1.066283,0.730442 5.92e-4,0.01315 -2.847793,1.638929 -6.329742,3.612841 -3.481948,1.973912 -6.432576,3.647498 -6.556952,3.71908 l -0.226136,0.13015 -6.491378,-3.6794 z"
       id="path5153"
       inkscape:connector-curvature="0"
       transform="translate(0,1020.3621)" />
    <path
       style="opacity:0;fill:#808080;stroke:#4d4d4d;stroke-width:0.03535534;stroke-linecap:square;stroke-linejoin:miter;stroke-miterlimit:4;stroke-dasharray:none"
       d="M 9.4468351,27.408483 2.893183,23.693485 3.9542377,22.98881 l 1.0610548,-0.704676 1.5090497,0.74622 c 0.8299773,0.41042 1.5607002,0.796387 1.6238286,0.857703 0.1681769,0.16335 15.5506312,0.163317 15.7188112,-3.3e-5 0.06311,-0.0613 0.793818,-0.44725 1.623795,-0.85767 l 1.50905,-0.74622 1.058143,0.702742 1.058143,0.702741 -4.909858,2.783517 c -2.700421,1.530934 -5.651438,3.203553 -6.557813,3.716932 l -1.647955,0.933415 -6.5536519,-3.714998 z"
       id="path5155"
       inkscape:connector-curvature="0"
       transform="translate(0,1020.3621)" />
    <path
       style="opacity:0;fill:#808080;stroke:#4d4d4d;stroke-width:0.0125;stroke-linecap:square;stroke-linejoin:miter;stroke-miterlimit:4;stroke-dasharray:none"
       d="M 9.4390247,27.430614 C 5.8315262,25.385692 2.8743972,23.707035 2.8676269,23.700265 c -0.00677,-0.0068 0.4743879,-0.336977 1.0692404,-0.733793 l 1.0815499,-0.721483 1.6077337,0.820397 c 1.2506847,0.6382 1.6097366,0.834372 1.6167522,0.883326 0.00901,0.06288 0.015167,0.06293 7.7590189,0.06293 l 7.75,0 0.0098,-0.06867 c 0.0081,-0.05664 0.291416,-0.21136 1.617192,-0.883034 l 1.60742,-0.814365 1.082725,0.722268 1.082726,0.722267 -0.09054,0.05559 c -0.0626,0.03843 -12.815973,7.266086 -13.045571,7.39325 -0.0096,0.0053 -2.969119,-1.663409 -6.5766173,-3.708331 z"
       id="path5157"
       inkscape:connector-curvature="0"
       transform="translate(0,1020.3621)" />
    <path
       style="fill:none;fill-rule:evenodd;stroke:#4d4d4d;stroke-width:0.4;stroke-linecap:butt;stroke-linejoin:miter;stroke-opacity:1;stroke-miterlimit:4;stroke-dasharray:none"
       d="m 2,1043.3621 5,-1 4,-1 10,0 9,2"
       id="path5401"
       inkscape:connector-curvature="0" />
    <path
       style="fill:none;fill-rule:evenodd;stroke:#4d4d4d;stroke-width:0.8;stroke-linecap:butt;stroke-linejoin:round;stroke-opacity:1;stroke-miterlimit:4;stroke-dasharray:none"
       d="m 12,1041.3621 4,-6 4,6"
       id="path5403"
       inkscape:connector-curvature="0" />
    <path
       style="fill:none;fill-rule:evenodd;stroke:#4d4d4d;stroke-width:1px;stroke-linecap:butt;stroke-linejoin:round;stroke-opacity:1"
       d="m 16,1035.3621 0,-6 0,-1"
       id="path5409"
       inkscape:connector-curvature="0" />
    <path
       style="fill:none;fill-rule:evenodd;stroke:#4d4d4d;stroke-width:0.7;stroke-linecap:butt;stroke-linejoin:round;stroke-opacity:1;stroke-miterlimit:4;stroke-dasharray:none"
       d="m 13,1031.3621 3,-2 3.0625,2.0313"
       id="path5411"
       inkscape:connector-curvature="0"
       sodipodi:nodetypes="ccc" />
    <ellipse
       style="opacity:1;fill:#808080;stroke:#4d4d4d;stroke-width:0.3;stroke-linecap:square;stroke-linejoin:miter;stroke-miterlimit:4;stroke-dasharray:none"
       id="path5413"
       cx="18.71875"
       cy="1032.5808"
       rx="1.5"
       ry="2.9999607" />
    <path
       style="fill:none;fill-rule:evenodd;stroke:#4d4d4d;stroke-width:0.2;stroke-linecap:butt;stroke-linejoin:miter;stroke-opacity:1;stroke-miterlimit:4;stroke-dasharray:none"
       d="m 13,1024.3621 0,16.625"
       id="path5415"
       inkscape:connector-curvature="0" />
    <ellipse
       style="opacity:1;fill:#808080;stroke:#4d4d4d;stroke-width:0.2;stroke-linecap:square;stroke-linejoin:miter;stroke-miterlimit:4;stroke-dasharray:none"
       id="path5417"
       cx="16"
       cy="1026.8621"
       rx="1"
       ry="1.5" />
    <circle
       style="opacity:1;fill:#808080;stroke:#4d4d4d;stroke-width:0.2;stroke-linecap:square;stroke-linejoin:miter;stroke-miterlimit:4;stroke-dasharray:none"
       id="path5959"
       cx="18.75"
       cy="1032.5183"
       r="0.5" />
  </g>
</svg>
